<svg width="81" height="41" viewBox="0 0 81 41" fill="none" xmlns="http://www.w3.org/2000/svg">
<path d="M10.696 21.5057V20.4403C11.4962 20.4403 12.0549 20.277 12.3722 19.9503C12.6894 19.6188 12.848 19.072 12.848 18.3097V16.2713C12.848 15.5469 12.9285 14.9384 13.0895 14.446C13.2552 13.9489 13.5062 13.5511 13.8423 13.2528C14.1785 12.9545 14.6046 12.7391 15.1207 12.6065C15.6368 12.474 16.2453 12.4077 16.946 12.4077V14.0909C16.3968 14.0909 15.9683 14.1714 15.6605 14.3324C15.3527 14.4934 15.1373 14.7443 15.0142 15.0852C14.8958 15.4214 14.8366 15.8523 14.8366 16.3778V18.9631C14.8366 19.3277 14.7822 19.6662 14.6733 19.9787C14.5644 20.2865 14.3632 20.554 14.0696 20.7812C13.776 21.0085 13.357 21.1861 12.8125 21.3139C12.268 21.4418 11.5625 21.5057 10.696 21.5057ZM16.946 30.5256C16.2453 30.5256 15.6368 30.4593 15.1207 30.3267C14.6046 30.1941 14.1785 29.9787 13.8423 29.6804C13.5062 29.3821 13.2552 28.9844 13.0895 28.4872C12.9285 27.9948 12.848 27.3864 12.848 26.6619V24.6165C12.848 23.8589 12.6894 23.3144 12.3722 22.983C12.0549 22.6515 11.4962 22.4858 10.696 22.4858V21.4276C11.5625 21.4276 12.268 21.4915 12.8125 21.6193C13.357 21.7424 13.776 21.92 14.0696 22.152C14.3632 22.3793 14.5644 22.6491 14.6733 22.9616C14.7822 23.2694 14.8366 23.6056 14.8366 23.9702V26.5554C14.8366 27.0762 14.8958 27.5047 15.0142 27.8409C15.1373 28.1818 15.3527 28.4328 15.6605 28.5938C15.9683 28.7595 16.3968 28.8423 16.946 28.8423V30.5256ZM10.696 22.4858V20.4403H12.6634V22.4858H10.696ZM29.4724 21.4276V22.4858C28.6722 22.4858 28.1135 22.6515 27.7962 22.983C27.479 23.3144 27.3204 23.8589 27.3204 24.6165V26.6619C27.3204 27.3864 27.2375 27.9948 27.0718 28.4872C26.9108 28.9844 26.6622 29.3821 26.3261 29.6804C25.9899 29.9787 25.5637 30.1941 25.0476 30.3267C24.5315 30.4593 23.9231 30.5256 23.2224 30.5256V28.8423C23.7716 28.8423 24.2001 28.7595 24.5079 28.5938C24.8156 28.4328 25.0287 28.1818 25.1471 27.8409C25.2702 27.5047 25.3317 27.0762 25.3317 26.5554V23.9702C25.3317 23.6056 25.3862 23.2694 25.4951 22.9616C25.604 22.6491 25.8052 22.3793 26.0988 22.152C26.3923 21.92 26.8114 21.7424 27.3559 21.6193C27.9004 21.4915 28.6059 21.4276 29.4724 21.4276ZM23.2224 12.4077C23.9231 12.4077 24.5315 12.474 25.0476 12.6065C25.5637 12.7391 25.9899 12.9545 26.3261 13.2528C26.6622 13.5511 26.9108 13.9489 27.0718 14.446C27.2375 14.9384 27.3204 15.5469 27.3204 16.2713V18.3097C27.3204 19.072 27.479 19.6188 27.7962 19.9503C28.1135 20.277 28.6722 20.4403 29.4724 20.4403V21.5057C28.6059 21.5057 27.9004 21.4418 27.3559 21.3139C26.8114 21.1861 26.3923 21.0085 26.0988 20.7812C25.8052 20.554 25.604 20.2865 25.4951 19.9787C25.3862 19.6662 25.3317 19.3277 25.3317 18.9631V16.3778C25.3317 15.8523 25.2702 15.4214 25.1471 15.0852C25.0287 14.7443 24.8156 14.4934 24.5079 14.3324C24.2001 14.1714 23.7716 14.0909 23.2224 14.0909V12.4077ZM29.4724 20.4403V22.4858H27.505V20.4403H29.4724Z" fill="#525866"/>
<path d="M41.8267 27.5H39.4972L44.7315 12.9545H47.267L52.5014 27.5H50.1719L46.0597 15.5966H45.946L41.8267 27.5ZM42.2173 21.804H49.7741V23.6506H42.2173V21.804ZM54.4819 27.5V12.9545H59.6666C60.7982 12.9545 61.7357 13.1605 62.4791 13.5724C63.2224 13.9844 63.7788 14.5478 64.1481 15.2628C64.5174 15.973 64.7021 16.7732 64.7021 17.6634C64.7021 18.5582 64.5151 19.3632 64.141 20.0781C63.7717 20.7884 63.213 21.3518 62.4649 21.7685C61.7215 22.1804 60.7864 22.3864 59.6595 22.3864H56.0941V20.5256H59.4606C60.1756 20.5256 60.7556 20.4025 61.2007 20.1562C61.6457 19.9053 61.9724 19.5644 62.1808 19.1335C62.3891 18.7027 62.4933 18.2126 62.4933 17.6634C62.4933 17.1141 62.3891 16.6264 62.1808 16.2003C61.9724 15.7741 61.6434 15.4403 61.1936 15.1989C60.7485 14.9574 60.1614 14.8366 59.4322 14.8366H56.6765V27.5H54.4819ZM69.3495 12.9545V27.5H67.1549V12.9545H69.3495Z" fill="#525866"/>
</svg>
