<svg width="22" height="24" viewBox="0 0 22 24" fill="none" xmlns="http://www.w3.org/2000/svg">
<path d="M0 19.8V3.6C0 2.64522 0.379285 1.72955 1.05442 1.05442C1.72955 0.379285 2.64522 0 3.6 0H20.4C20.7183 0 21.0235 0.126428 21.2485 0.351472C21.4736 0.576515 21.6 0.88174 21.6 1.2V22.8C21.6 23.1183 21.4736 23.4235 21.2485 23.6485C21.0235 23.8736 20.7183 24 20.4 24H4.2C3.08609 24 2.0178 23.5575 1.23015 22.7699C0.442499 21.9822 0 20.9139 0 19.8V19.8ZM19.2 21.6V18H4.2C3.72261 18 3.26477 18.1896 2.92721 18.5272C2.58964 18.8648 2.4 19.3226 2.4 19.8C2.4 20.2774 2.58964 20.7352 2.92721 21.0728C3.26477 21.4104 3.72261 21.6 4.2 21.6H19.2ZM8.4 2.4H3.6C3.28174 2.4 2.97652 2.52643 2.75147 2.75147C2.52643 2.97652 2.4 3.28174 2.4 3.6V16.0044C2.96243 15.7373 3.57738 15.5992 4.2 15.6H19.2V2.4H16.8V12L12.6 9.6L8.4 12V2.4Z" fill="#525866"/>
</svg>
