<svg width="47" height="48" viewBox="0 0 47 48" fill="none" xmlns="http://www.w3.org/2000/svg">
<path d="M17.6152 3.37109C20.9575 1.82399 24.8196 1.82765 28.166 3.39453L35.5664 6.85938L35.8857 7.01465C39.1631 8.66414 41.5562 11.6752 42.418 15.2539L44.2422 22.8281L44.3193 23.1689C45.0421 26.5871 44.3006 30.1532 42.2754 33L42.0684 33.2822L36.2246 41.0283C33.8626 44.1592 30.168 45.9999 26.2461 46H19.7539C15.9544 45.9999 12.3688 44.2719 10.001 41.3174L9.77539 41.0283L4.0293 33.4111C1.715 30.3434 0.940375 26.3815 1.92871 22.668L4.00195 14.8779L4.0918 14.5547C5.07336 11.2285 7.3963 8.45361 10.5098 6.90332L17.2939 3.52539L17.6152 3.37109Z" stroke="#FF5620" stroke-width="3"/>
</svg>
