<svg width="24" height="24" viewBox="0 0 24 24" fill="none" xmlns="http://www.w3.org/2000/svg">
<path d="M10.2 7.5C10.1998 8.75158 10.5724 9.97484 11.2703 11.0138C11.9682 12.0527 12.9597 12.8603 14.1184 13.3334C15.2771 13.8065 16.5505 13.9238 17.7761 13.6703C19.0017 13.4168 20.1241 12.804 21 11.91V12C21 16.9707 16.9707 21 12 21C7.0293 21 3 16.9707 3 12C3 7.0293 7.0293 3 12 3H12.09C11.4906 3.58601 11.0146 4.28607 10.69 5.05891C10.3654 5.83176 10.1988 6.66176 10.2 7.5ZM4.8 12C4.79935 13.6065 5.33597 15.167 6.3245 16.4334C7.31303 17.6997 8.69667 18.5991 10.2553 18.9883C11.8139 19.3776 13.4579 19.2345 14.9258 18.5817C16.3936 17.9289 17.601 16.8039 18.3558 15.3858C17.0125 15.7023 15.6106 15.6703 14.2831 15.2928C12.9557 14.9154 11.7467 14.2051 10.7708 13.2292C9.79493 12.2533 9.08458 11.0443 8.70715 9.71686C8.32972 8.38939 8.29773 6.9875 8.6142 5.6442C7.46182 6.25812 6.49811 7.1739 5.82623 8.29348C5.15436 9.41306 4.79962 10.6943 4.8 12Z" fill="#525866"/>
</svg>
