<svg width="32" height="32" viewBox="0 0 32 32" fill="none" xmlns="http://www.w3.org/2000/svg">
<path d="M7.99525 5.52529C8.79569 5.23967 9.66396 5.20361 10.4853 5.42186C11.3067 5.64011 12.0425 6.10241 12.5956 6.74768C13.1487 7.39296 13.493 8.19084 13.5831 9.03593C13.6732 9.88102 13.5047 10.7336 13.1001 11.4809L25.9508 24.3329L24.2541 26.0297L11.4021 13.1777C10.6545 13.5808 9.80244 13.7479 8.95805 13.6571C8.11366 13.5663 7.31659 13.2217 6.6719 12.6689C6.02721 12.1161 5.56515 11.3809 5.34661 10.5602C5.12806 9.73956 5.16329 8.87194 5.44765 8.07169L8.13205 10.7561C8.2981 10.928 8.49672 11.0651 8.71632 11.1595C8.93593 11.2538 9.17213 11.3035 9.41113 11.3055C9.65013 11.3076 9.88715 11.2621 10.1084 11.1716C10.3296 11.0811 10.5306 10.9474 10.6996 10.7784C10.8686 10.6094 11.0022 10.4084 11.0927 10.1872C11.1832 9.966 11.2288 9.72897 11.2267 9.48997C11.2246 9.25097 11.175 9.01477 11.0806 8.79517C10.9863 8.57556 10.8492 8.37694 10.6773 8.21089L7.99405 5.52409L7.99525 5.52529ZM20.4357 7.78609L24.2541 5.66449L25.9508 7.36129L23.8293 11.1797L21.7077 11.6045L19.1637 14.1497L17.4657 12.4529L20.0109 9.90769L20.4357 7.78609V7.78609ZM12.3741 17.5445L14.0709 19.2413L7.70725 25.6049C7.49089 25.8219 7.19972 25.9479 6.89345 25.957C6.58717 25.9662 6.28899 25.8579 6.06003 25.6542C5.83107 25.4506 5.68869 25.1671 5.66207 24.8618C5.63544 24.5566 5.7266 24.2527 5.91685 24.0125L6.01045 23.9081L12.3741 17.5445Z" fill="#525866"/>
</svg>
